<svg width="178" height="56" viewBox="0 0 178 56" fill="none" xmlns="http://www.w3.org/2000/svg">
<g filter="url(#filter0_d_99_61)">
<rect x="4" width="174" height="52" fill="#FCE9F1"/>
<rect x="5" y="1" width="172" height="50" stroke="#080202" stroke-width="2"/>
<path d="M25.86 34C25.3533 34 24.8867 33.8733 24.46 33.62C24.0467 33.3667 23.7133 33.0333 23.46 32.62C23.2067 32.1933 23.08 31.7267 23.08 31.22V22.38C23.08 21.8733 23.2067 21.4133 23.46 21C23.7133 20.5733 24.0467 20.2333 24.46 19.98C24.8867 19.7267 25.3533 19.6 25.86 19.6H34.7C35.2067 19.6 35.6667 19.7267 36.08 19.98C36.5067 20.2333 36.8467 20.5733 37.1 21C37.3533 21.4133 37.48 21.8733 37.48 22.38V31.22C37.48 31.7267 37.3533 32.1933 37.1 32.62C36.8467 33.0333 36.5067 33.3667 36.08 33.62C35.6667 33.8733 35.2067 34 34.7 34H25.86ZM25.96 31.34H34.56C34.6267 31.34 34.6867 31.32 34.74 31.28C34.7933 31.2267 34.82 31.1667 34.82 31.1V22.5C34.82 22.4333 34.7933 22.38 34.74 22.34C34.6867 22.2867 34.6267 22.26 34.56 22.26H25.96C25.8933 22.26 25.8333 22.2867 25.78 22.34C25.74 22.38 25.72 22.4333 25.72 22.5V31.1C25.72 31.1667 25.74 31.2267 25.78 31.28C25.8333 31.32 25.8933 31.34 25.96 31.34ZM41.6825 34V19.6H44.5825L53.4225 30.12V19.6H56.0825V34H53.1825L44.3225 23.46V34H41.6825ZM60.3631 34V19.6H73.6231V22.26H63.0231V25.46H71.5431V28.14H63.0231V31.34H73.6231V34H60.3631ZM85.7489 34V19.62H97.3489C97.8556 19.62 98.3222 19.7467 98.7489 20C99.1756 20.2533 99.5156 20.5933 99.7689 21.02C100.022 21.4333 100.149 21.8933 100.149 22.4V26.28C100.149 26.7867 100.022 27.2533 99.7689 27.68C99.5156 28.1067 99.1756 28.4467 98.7489 28.7C98.3222 28.94 97.8556 29.06 97.3489 29.06L88.3889 29.08V34H85.7489ZM88.6289 26.4H97.2289C97.2956 26.4 97.3556 26.38 97.4089 26.34C97.4622 26.3 97.4889 26.2467 97.4889 26.18V22.5C97.4889 22.4333 97.4622 22.38 97.4089 22.34C97.3556 22.2867 97.2956 22.26 97.2289 22.26H88.6289C88.5622 22.26 88.5022 22.2867 88.4489 22.34C88.4089 22.38 88.3889 22.4333 88.3889 22.5V26.18C88.3889 26.2467 88.4089 26.3 88.4489 26.34C88.5022 26.38 88.5622 26.4 88.6289 26.4ZM103.289 34V19.6H105.909V34H103.289ZM109.887 34V19.6H123.147V22.26H112.547V25.46H121.067V28.14H112.547V31.34H123.147V34H109.887ZM129.939 34C129.432 34 128.966 33.8733 128.539 33.62C128.126 33.3667 127.792 33.0333 127.539 32.62C127.286 32.1933 127.159 31.7267 127.159 31.22V22.38C127.159 21.8733 127.286 21.4133 127.539 21C127.792 20.5733 128.126 20.2333 128.539 19.98C128.966 19.7267 129.432 19.6 129.939 19.6H141.519V22.26H130.499C130.286 22.26 130.112 22.32 129.979 22.44C129.859 22.56 129.799 22.7333 129.799 22.96V30.64C129.799 30.8533 129.859 31.0267 129.979 31.16C130.112 31.28 130.286 31.34 130.499 31.34H141.519V34H129.939ZM145.644 34V19.6H158.904V22.26H148.304V25.46H156.824V28.14H148.304V31.34H158.904V34H145.644Z" fill="#C63D2F"/>
</g>
<defs>
<filter id="filter0_d_99_61" x="0" y="0" width="178" height="56" filterUnits="userSpaceOnUse" color-interpolation-filters="sRGB">
<feFlood flood-opacity="0" result="BackgroundImageFix"/>
<feColorMatrix in="SourceAlpha" type="matrix" values="0 0 0 0 0 0 0 0 0 0 0 0 0 0 0 0 0 0 127 0" result="hardAlpha"/>
<feOffset dx="-4" dy="4"/>
<feComposite in2="hardAlpha" operator="out"/>
<feColorMatrix type="matrix" values="0 0 0 0 0 0 0 0 0 0 0 0 0 0 0 0 0 0 1 0"/>
<feBlend mode="normal" in2="BackgroundImageFix" result="effect1_dropShadow_99_61"/>
<feBlend mode="normal" in="SourceGraphic" in2="effect1_dropShadow_99_61" result="shape"/>
</filter>
</defs>
</svg>
